<?xml version="1.0" encoding="UTF-8"?>
<svg version="1.1" xmlns="http://www.w3.org/2000/svg" width="512" height="512">
<path d="M0 0 C1.68406197 -0.01051392 1.68406197 -0.01051392 3.40214539 -0.02124023 C7.12869782 -0.03889372 10.85449391 -0.02715489 14.58105469 -0.01367188 C17.18585352 -0.01636842 19.79065138 -0.0202522 22.39544678 -0.02526855 C27.87325161 -0.03255377 33.35084117 -0.02295624 38.82861328 -0.00390625 C45.09725763 0.01764723 51.36537712 0.01097426 57.63400769 -0.01121187 C63.71339711 -0.03184352 69.79256089 -0.0292811 75.87197113 -0.01768494 C78.43109972 -0.01504931 80.99024198 -0.01817348 83.54935455 -0.02760315 C113.13824982 -0.11255653 145.94353393 3.62222899 171.67480469 19.79101562 C174.74332195 21.71299528 174.74332195 21.71299528 177.47167969 21.49414062 C180.92158686 20.16315792 184.20317229 18.55115158 187.50292969 16.89257812 C203.57748519 9.11825541 220.40345653 4.34920431 238.00292969 1.51757812 C238.96303452 1.34860519 239.92313934 1.17963226 240.91233826 1.00553894 C246.17085234 0.2638477 251.44894163 0.35364502 256.74975586 0.34057617 C257.91478134 0.33400497 259.07980682 0.32743378 260.28013611 0.32066345 C264.11872426 0.3010192 267.95727362 0.28929281 271.79589844 0.27929688 C273.1083938 0.27522135 274.42088917 0.27114582 275.77315712 0.26694679 C281.99562736 0.24794032 288.21808597 0.23369225 294.44057959 0.22533482 C301.61448203 0.21553809 308.78807794 0.18913678 315.96187228 0.14883393 C321.51702199 0.11869712 327.07208355 0.10386884 332.62731344 0.10055381 C335.9418525 0.09820325 339.25598682 0.08726869 342.57045555 0.06409264 C346.26198558 0.03986694 349.95270273 0.0406353 353.64428711 0.04760742 C354.74099731 0.03479736 355.83770752 0.0219873 356.96765137 0.00878906 C358.4752729 0.01920479 358.4752729 0.01920479 360.01335144 0.02983093 C360.8854938 0.02744258 361.75763617 0.02505423 362.65620708 0.0225935 C365.81343936 0.68853562 367.01996286 2.02399525 369.00292969 4.51757812 C369.45703125 7.54199219 369.45703125 7.54199219 369.39355469 11.03320312 C369.37421875 12.90878906 369.37421875 12.90878906 369.35449219 14.82226562 C369.30421875 16.77519531 369.30421875 16.77519531 369.25292969 18.76757812 C369.23488281 20.085 369.21683594 21.40242188 369.19824219 22.75976562 C369.1510924 26.0131012 369.08529013 29.26497437 369.00292969 32.51757812 C370.0725293 32.49663086 371.14212891 32.47568359 372.24414062 32.45410156 C376.21731142 32.38163187 380.19042394 32.33575349 384.1640625 32.29785156 C385.88291248 32.27775185 387.60169421 32.25046724 389.3203125 32.21582031 C391.79281458 32.16722779 394.26441179 32.14459378 396.73730469 32.12695312 C397.88752106 32.09598541 397.88752106 32.09598541 399.06097412 32.06439209 C402.40713277 32.06298885 404.50070934 32.13508633 407.20639372 34.19573975 C409.4291424 37.06841432 409.50393703 38.51780871 409.50629425 42.12109375 C409.52194073 43.84317047 409.52194073 43.84317047 409.53790331 45.60003662 C409.52898042 46.86188782 409.52005754 48.12373901 409.51086426 49.42382812 C409.51547216 50.77737093 409.52182433 52.13090873 409.52977324 53.48443604 C409.54650535 57.20752814 409.53820287 60.93021128 409.52582836 64.65330505 C409.51679594 68.66701052 409.53073858 72.68064456 409.54174805 76.69433594 C409.55955726 84.55858535 409.55568263 92.42268227 409.54409748 100.28693771 C409.53507286 106.67698165 409.53383495 113.06698277 409.53819275 119.45703125 C409.53880568 120.36565289 409.53941861 121.27427452 409.54005012 122.21043015 C409.54132899 124.0561371 409.54262584 125.90184404 409.54394048 127.74755096 C409.55535332 145.06466144 409.54222156 162.38168728 409.52073902 179.69878387 C409.5028674 194.56550768 409.50597131 209.43210657 409.52441406 224.29882812 C409.54580837 241.55293842 409.55425462 258.80697449 409.54196501 276.06109619 C409.54069078 277.90010578 409.5394333 279.73911539 409.53819275 281.578125 C409.5372671 282.93545305 409.5372671 282.93545305 409.53632274 284.32020187 C409.53286552 290.70437142 409.5387062 297.08849398 409.54811096 303.47265625 C409.55931635 311.25026984 409.55632176 319.0277219 409.53498799 326.80531693 C409.52445779 330.77545311 409.520389 334.74531976 409.53358459 338.7154541 C409.54547398 342.34745638 409.53900389 345.97893841 409.51767439 349.61089325 C409.5110652 351.5523025 409.52417535 353.49374766 409.53790331 355.43511963 C409.52225682 357.15719635 409.52225682 357.15719635 409.50629425 358.9140625 C409.50564484 359.90676147 409.50499543 360.89946045 409.50432634 361.92224121 C408.83318524 365.39621188 407.91598668 366.51342346 405.00292969 368.51757812 C402.33079359 368.90978247 400.07069253 369.05567729 397.40039062 369.02094269 C396.62707523 369.02675645 395.85375984 369.03257021 395.05701065 369.03856015 C392.45012949 369.05322797 389.84417992 369.03924378 387.23730469 369.0255127 C385.35578935 369.03011894 383.47427761 369.03646999 381.59277344 369.04442167 C376.41031833 369.06117613 371.22815647 369.0528409 366.04570007 369.0404768 C360.46143571 369.03145359 354.87722297 369.04538244 349.29296875 369.05639648 C338.3486092 369.07421553 327.40435917 369.07032666 316.45999527 369.05874592 C307.56804757 369.04972517 298.67613064 369.04848171 289.78417969 369.05284119 C288.52031181 369.05345412 287.25644394 369.05406705 285.95427704 369.05469856 C283.38703409 369.05597741 280.81979115 369.05727426 278.25254822 369.05858892 C254.84703507 369.06967899 231.44159228 369.05816352 208.03609276 369.03721853 C186.66042302 369.01823548 165.28484859 369.01993396 143.90917969 369.0390625 C119.90464759 369.06047163 95.90017508 369.06890591 71.89562988 369.05661345 C69.33764649 369.0553392 66.77966309 369.05408172 64.22167969 369.05284119 C62.33364246 369.05191553 62.33364246 369.05191553 60.40746307 369.05097118 C51.52260563 369.04751243 42.63778191 369.05335793 33.75292969 369.0627594 C22.93039584 369.07395911 12.10797809 369.07098211 1.28545761 369.04963642 C-4.24005781 369.03909868 -9.76537942 369.03505048 -15.29089355 369.04823303 C-20.34396759 369.06010644 -25.39666722 369.05367818 -30.44970703 369.03232282 C-32.28275175 369.02783524 -34.11582776 369.03017096 -35.94885254 369.03982598 C-38.43120194 369.05190343 -40.91225099 369.0396044 -43.39453125 369.02094269 C-44.47442636 369.03498968 -44.47442636 369.03498968 -45.57613754 369.04932046 C-48.83388181 369.00001096 -50.73186614 368.700036 -53.44076872 366.83633757 C-55.36361173 363.97146202 -55.49818632 362.35125111 -55.50043488 358.9140625 C-55.51086586 357.76601135 -55.52129685 356.61796021 -55.53204393 355.43511963 C-55.52312105 354.17326843 -55.51419816 352.91141724 -55.50500488 351.61132812 C-55.50961278 350.25778532 -55.51596495 348.90424752 -55.52391386 347.55072021 C-55.54064597 343.82762811 -55.53234349 340.10494497 -55.51996899 336.3818512 C-55.51093656 332.36814573 -55.5248792 328.35451169 -55.53588867 324.34082031 C-55.55369788 316.4765709 -55.54982326 308.61247398 -55.53823811 300.74821854 C-55.52921348 294.3581746 -55.52797557 287.96817348 -55.53233337 281.578125 C-55.53294631 280.66950336 -55.53355924 279.76088173 -55.53419074 278.8247261 C-55.53546961 276.97901915 -55.53676647 275.13331221 -55.53808111 273.28760529 C-55.54949394 255.97049481 -55.53636219 238.65346897 -55.51487964 221.33637238 C-55.49700802 206.46964857 -55.50011193 191.60304968 -55.51855469 176.73632812 C-55.539949 159.48221783 -55.54839524 142.22818176 -55.53610563 124.97406006 C-55.5348314 123.13505047 -55.53357392 121.29604086 -55.53233337 119.45703125 C-55.53171627 118.55214588 -55.53109917 117.64726051 -55.53046337 116.71495438 C-55.52700614 110.33078483 -55.53284682 103.94666227 -55.54225159 97.5625 C-55.55345698 89.78488641 -55.55046239 82.00743435 -55.52912861 74.22983932 C-55.51859841 70.25970314 -55.51452962 66.28983649 -55.52772522 62.31970215 C-55.53961461 58.68769987 -55.53314452 55.05621784 -55.51181501 51.424263 C-55.50520583 49.48285375 -55.51831597 47.54140859 -55.53204393 45.60003662 C-55.52161294 44.45198547 -55.51118196 43.30393433 -55.50043488 42.12109375 C-55.49978547 41.12839478 -55.49913606 40.1356958 -55.49846697 39.11291504 C-54.85006591 35.75665173 -53.69037734 34.56880493 -50.99707031 32.51757812 C-48.10741911 32.16847763 -45.61114321 32.04942192 -42.73144531 32.12695312 C-41.93804749 32.13261292 -41.14464966 32.13827271 -40.32720947 32.144104 C-37.79987558 32.16644666 -35.27397366 32.21663637 -32.74707031 32.26757812 C-31.030945 32.28764598 -29.31479739 32.30589626 -27.59863281 32.32226562 C-23.39756251 32.36630417 -19.19755897 32.43531486 -14.99707031 32.51757812 C-15.01801758 31.69032227 -15.03896484 30.86306641 -15.06054688 30.01074219 C-15.14368651 26.26314442 -15.19572562 22.51574063 -15.24707031 18.76757812 C-15.29734375 16.81464844 -15.29734375 16.81464844 -15.34863281 14.82226562 C-15.36152344 13.571875 -15.37441406 12.32148437 -15.38769531 11.03320312 C-15.40864258 9.88110352 -15.42958984 8.72900391 -15.45117188 7.54199219 C-14.99707031 4.51757812 -14.99707031 4.51757812 -13.65600586 2.36090088 C-9.39621133 -0.59222681 -5.06261758 -0.03864759 0 0 Z M49.00292969 16.51757812 C49.00292969 66.67757812 49.00292969 116.83757812 49.00292969 168.51757812 C53.54618052 165.96289219 53.54618052 165.96289219 57.97167969 163.21679688 C60.83424144 161.32546143 62.89204175 160.5238548 66.31542969 160.33007812 C70.87766345 161.79927205 74.15253456 164.16010625 77.96386719 167.02148438 C79.71579834 168.61617221 79.71579834 168.61617221 81.00292969 168.51757812 C81.00292969 118.35757813 81.00292969 68.19757813 81.00292969 16.51757812 C70.44292969 16.51757812 59.88292969 16.51757812 49.00292969 16.51757812 Z M208.06542969 26.89257812 C207.35741211 27.1480542 206.64939453 27.40353027 205.91992188 27.66674805 C198.62527995 30.44442606 192.07983691 33.97912451 185.00292969 37.51757812 C185.00292969 128.92757813 185.00292969 220.33757813 185.00292969 314.51757812 C188.58167826 313.32466193 192.00671929 312.15849709 195.47949219 310.74804688 C204.32647017 307.21996255 213.13185355 303.96723851 222.37792969 301.64257812 C223.12381348 301.45203857 223.86969727 301.26149902 224.63818359 301.06518555 C264.97785628 291.44371669 318.74431333 296.84077262 353.00292969 296.51757812 C353.00292969 204.11757813 353.00292969 111.71757812 353.00292969 16.51757812 C279.62155694 13.36926342 279.62155694 13.36926342 208.06542969 26.89257812 Z M1.00292969 16.51757812 C1.00292969 108.91757813 1.00292969 201.31757813 1.00292969 296.51757812 C36.64292969 296.84757812 72.28292969 297.17757813 109.00292969 297.51757812 C131.27209183 301.03376162 131.27209183 301.03376162 138.56542969 303.20507812 C139.42112549 303.45273926 140.27682129 303.70040039 141.15844727 303.95556641 C148.9441579 306.30756709 156.26843232 309.50061833 163.60839844 312.97851562 C166.68532702 314.65522285 166.68532702 314.65522285 169.00292969 314.51757812 C169.00292969 223.10757812 169.00292969 131.69757812 169.00292969 37.51757812 C148.10585328 27.56658936 125.93941671 17.3827201 102.24145508 17.49316406 C100.76667442 17.49845123 100.76667442 17.49845123 99.26210022 17.50384521 C98.51657394 17.50837708 97.77104767 17.51290894 97.00292969 17.51757812 C97.00054133 18.39610097 96.99815298 19.27462381 96.99569225 20.17976856 C96.93660821 41.53626999 96.86110064 62.89265795 96.76721478 84.24903584 C96.7222105 94.57673944 96.68280659 104.9044082 96.65649414 115.23217773 C96.6335515 124.23174322 96.60019552 133.23119887 96.55422813 142.23067731 C96.53024538 146.99776329 96.51154979 151.76474016 96.50531578 156.53188515 C96.49928768 161.01592038 96.47937084 165.49967624 96.44865417 169.98360825 C96.43983729 171.63197455 96.43615887 173.28037731 96.43792152 174.92876625 C96.43956517 177.1745015 96.42295441 179.41937578 96.4016571 181.66499329 C96.39704814 182.92324071 96.39243917 184.18148813 96.38769054 185.47786427 C96.00292969 188.51757812 96.00292969 188.51757812 94.7038393 190.41046429 C92.31270453 191.96684234 90.06155332 192.10964367 87.25439453 192.00244141 C82.79672186 191.04246115 79.40333354 188.14675788 75.81542969 185.45507812 C74.26941827 184.3048252 72.71370787 183.16746526 71.14746094 182.04492188 C70.13196167 181.28296509 70.13196167 181.28296509 69.09594727 180.50561523 C66.29002944 179.18104397 64.91793361 179.56270253 62.00292969 180.51757812 C59.96826023 181.61114119 59.96826023 181.61114119 58.07714844 183.02148438 C57.36236328 183.51455078 56.64757812 184.00761719 55.91113281 184.515625 C54.43663435 185.55438777 52.96779261 186.60122926 51.50488281 187.65625 C46.41390931 191.14002828 43.19353532 192.41332492 37.00292969 191.51757812 C35.30006695 190.41527843 35.30006695 190.41527843 34.00292969 188.51757812 C33.61816883 185.46224689 33.61816883 185.46224689 33.60420227 181.62702942 C33.59755544 180.92209514 33.59090862 180.21716086 33.58406037 179.49086493 C33.56537208 177.12307735 33.56803948 174.75579249 33.57055664 172.38793945 C33.56154301 170.69292992 33.55121678 168.99792693 33.53967285 167.30293274 C33.51202976 162.69580223 33.50280845 158.08879514 33.49681878 153.48159242 C33.48745408 148.66888654 33.4612523 143.85627356 33.43681335 139.04362488 C33.39309213 129.92767316 33.36457974 120.81173942 33.34148997 111.69571465 C33.31446839 101.31852201 33.27055505 90.94142256 33.22520125 80.56429636 C33.1322744 59.21542718 33.06286062 37.86656719 33.00292969 16.51757812 C22.44292969 16.51757812 11.88292969 16.51757812 1.00292969 16.51757812 Z M-38.99707031 48.51757812 C-38.99707031 148.83757812 -38.99707031 249.15757812 -38.99707031 352.51757812 C103.56292969 352.51757812 246.12292969 352.51757812 393.00292969 352.51757812 C393.00292969 252.19757813 393.00292969 151.87757812 393.00292969 48.51757812 C385.08292969 48.51757812 377.16292969 48.51757812 369.00292969 48.51757812 C368.99706345 51.76821609 368.9911972 55.01885406 368.9851532 58.36799622 C368.93001314 88.1559703 368.86007811 117.94387254 368.77394341 147.73177241 C368.76267483 151.63343715 368.75153644 155.53510224 368.74047852 159.43676758 C368.73827483 160.21354049 368.73607115 160.9903134 368.73380069 161.79062488 C368.69839875 174.37891476 368.67355099 186.96720457 368.65258267 199.55552582 C368.63084364 212.46597192 368.59781139 225.37635326 368.55422813 238.2867443 C368.52767857 246.25739022 368.51000758 254.22795538 368.50358365 262.19864335 C368.49772119 268.30379373 368.47616986 274.40878429 368.44865417 280.51387978 C368.43982759 283.02335841 368.43616084 285.53286105 368.43792152 288.04235458 C368.43956159 291.45718862 368.4229834 294.87145288 368.4016571 298.28620911 C368.40892847 299.79057116 368.40892847 299.79057116 368.41634673 301.32532436 C368.40689019 302.23698035 368.39743365 303.14863635 368.38769054 304.08791828 C368.38579194 304.87659741 368.38389334 305.66527653 368.38193721 306.47785503 C367.90570201 309.04083304 367.03295719 309.93120584 365.00292969 311.51757812 C363.08944321 311.89675236 363.08944321 311.89675236 360.88665771 311.90284729 C360.04911453 311.91249512 359.21157135 311.92214294 358.34864807 311.93208313 C357.43244186 311.92750595 356.51623566 311.92292877 355.57226562 311.91821289 C354.12009895 311.92868149 354.12009895 311.92868149 352.63859558 311.93936157 C349.42141129 311.95942935 346.20454625 311.95883863 342.98730469 311.95898438 C340.7373977 311.97076451 338.4874985 311.98413029 336.23760986 311.99900818 C330.28864155 312.03530106 324.33974198 312.05540667 318.39068604 312.07055664 C308.94137262 312.09528933 299.49221197 312.13586989 290.04303741 312.1924572 C286.77391306 312.20849807 283.50493722 312.21254016 280.23577881 312.21546936 C269.96914507 312.25071536 259.78713615 312.54813102 249.5546875 313.42358398 C248.63229656 313.5024437 247.70990562 313.58130342 246.75956345 313.66255283 C237.97706015 314.49094376 229.50577334 316.19899884 221.00292969 318.51757812 C219.82601563 318.83082031 218.64910156 319.1440625 217.43652344 319.46679688 C207.71786372 322.38782421 198.82764827 326.84648394 189.83276367 331.50390625 C178.82995145 337.04378373 178.82995145 337.04378373 173.00292969 335.51757812 C168.90351286 333.90265634 165.03489097 331.92300502 161.12792969 329.89257812 C147.47544691 323.09614565 134.3926218 318.20098353 119.44042969 315.20507812 C118.25562012 314.9653125 118.25562012 314.9653125 117.046875 314.72070312 C102.01064257 311.98133309 86.44846641 312.36749187 71.22203445 312.31834793 C67.84249666 312.30637674 64.46307654 312.28689207 61.08358765 312.26522827 C51.48968352 312.20413938 41.89580328 312.14930102 32.30175781 312.11621094 C26.4011665 312.09532712 20.50081048 312.06010907 14.60035324 312.01545334 C12.35882696 312.00128099 10.1172593 311.99256813 7.87569046 311.98939896 C4.75980882 311.984517 1.64456213 311.96144065 -1.47119141 311.93408203 C-2.39682388 311.93708817 -3.32245636 311.9400943 -4.27613831 311.94319153 C-5.12235245 311.93209854 -5.96856659 311.92100555 -6.84042358 311.90957642 C-7.57513571 311.90626627 -8.30984783 311.90295612 -9.06682396 311.89954567 C-11.60968849 311.39634994 -12.38738921 310.52821346 -13.99707031 308.51757812 C-14.37607783 306.47785503 -14.37607783 306.47785503 -14.38183117 304.08791828 C-14.39128771 303.17626229 -14.40074425 302.26460629 -14.41048735 301.32532436 C-14.40563978 300.32241632 -14.4007922 299.31950829 -14.39579773 298.28620911 C-14.40576797 296.68977877 -14.40576797 296.68977877 -14.41593963 295.06109732 C-14.43466542 291.47724052 -14.43195786 287.89371476 -14.42944336 284.30981445 C-14.43845465 281.74782333 -14.44878029 279.18583654 -14.46032715 276.62385559 C-14.48225808 271.09903327 -14.49500367 265.57430995 -14.49945641 260.04944801 C-14.5059101 252.06141918 -14.52883364 244.07350471 -14.5557997 236.0855219 C-14.59910011 223.12612247 -14.62904825 210.16672784 -14.65063477 197.20727539 C-14.67163472 184.61708208 -14.6989012 172.02692811 -14.73461914 159.43676758 C-14.73681797 158.6609369 -14.73901679 157.88510622 -14.74128225 157.08576552 C-14.75235165 153.1937186 -14.76354451 149.30167204 -14.77479875 145.40962565 C-14.86802991 113.1123076 -14.93878503 80.81497865 -14.99707031 48.51757812 C-22.91707031 48.51757812 -30.83707031 48.51757812 -38.99707031 48.51757812 Z " fill="#000000" transform="translate(78.9970703125,63.482421875)"/>
<path d="M0 0 C31.68 0 63.36 0 96 0 C96 5.28 96 10.56 96 16 C64.32 16 32.64 16 0 16 C0 10.72 0 5.44 0 0 Z " fill="#000000" transform="translate(304,304)"/>
<path d="M0 0 C31.68 0 63.36 0 96 0 C96 5.28 96 10.56 96 16 C64.32 16 32.64 16 0 16 C0 10.72 0 5.44 0 0 Z " fill="#000000" transform="translate(304,240)"/>
<path d="M0 0 C31.68 0 63.36 0 96 0 C96 5.28 96 10.56 96 16 C64.32 16 32.64 16 0 16 C0 10.72 0 5.44 0 0 Z " fill="#000000" transform="translate(304,176)"/>
<path d="M0 0 C21.78 0 43.56 0 66 0 C66 5.28 66 10.56 66 16 C44.22 16 22.44 16 0 16 C0 10.72 0 5.44 0 0 Z " fill="#000000" transform="translate(304,272)"/>
<path d="M0 0 C21.78 0 43.56 0 66 0 C66 5.28 66 10.56 66 16 C44.22 16 22.44 16 0 16 C0 10.72 0 5.44 0 0 Z " fill="#000000" transform="translate(304,208)"/>
</svg>
